<svg width="93" height="86" viewBox="0 0 93 86" fill="none" xmlns="http://www.w3.org/2000/svg">
<path d="M1.81641 27.2109H91.1836V84.3203H1.81641V27.2109Z" fill="white"/>
<path d="M11.9883 36.6172H29.2672V49.3828H11.9883V36.6172Z" fill="white"/>
<path d="M11.9883 62.1484H29.2672V74.9141H11.9883V62.1484Z" fill="white"/>
<path d="M46.5231 62.1484H63.802V74.9141H46.5231V62.1484Z" fill="white"/>
<path d="M11.9883 49.3828H29.2672V62.1484H11.9883V49.3828Z" fill="white"/>
<path d="M29.2672 49.3828H46.5461V62.1484H29.2672V49.3828Z" fill="white"/>
<path d="M63.7789 49.3828H81.0578V62.1484H63.7789V49.3828Z" fill="white"/>
<path d="M46.5231 36.6172H63.802V49.3828H46.5231V36.6172Z" fill="white"/>
<path d="M1.81641 8.39844H91.1836V27.2109H1.81641V8.39844Z" fill="#4B5320"/>
<path d="M71.9297 12.7656V5.375C71.9297 3.33418 73.7188 1.67969 75.9258 1.67969C78.1327 1.67969 79.9219 3.33418 79.9219 5.375V12.7656C79.9219 14.8064 78.1327 16.4609 75.9258 16.4609C73.7188 16.4609 71.9297 14.8064 71.9297 12.7656Z" fill="white"/>
<path d="M52.3125 12.7656V5.375C52.3125 3.33418 54.1017 1.67969 56.3086 1.67969C58.5155 1.67969 60.3047 3.33418 60.3047 5.375V12.7656C60.3047 14.8064 58.5155 16.4609 56.3086 16.4609C54.1017 16.4609 52.3125 14.8064 52.3125 12.7656Z" fill="white"/>
<path d="M32.6953 12.7656V5.375C32.6953 3.33418 34.4845 1.67969 36.6914 1.67969C38.8983 1.67969 40.6875 3.33418 40.6875 5.375V12.7656C40.6875 14.8064 38.8983 16.4609 36.6914 16.4609C34.4845 16.4609 32.6953 14.8064 32.6953 12.7656Z" fill="white"/>
<path d="M13.0781 12.7656V5.375C13.0781 3.33418 14.8673 1.67969 17.0742 1.67969C19.2812 1.67969 21.0703 3.33418 21.0703 5.375V12.7656C21.0703 14.8064 19.2812 16.4609 17.0742 16.4609C14.8673 16.4609 13.0781 14.8064 13.0781 12.7656Z" fill="white"/>
<path d="M91.1836 6.71875H81.7383V5.375C81.7383 2.41119 79.1308 0 75.9258 0C72.7207 0 70.1133 2.41119 70.1133 5.375V6.71875H62.1211V5.375C62.1211 2.41119 59.5136 0 56.3086 0C53.1035 0 50.4961 2.41119 50.4961 5.375V6.71875H42.5039V5.375C42.5039 2.41119 39.8965 0 36.6914 0C33.4864 0 30.8789 2.41119 30.8789 5.375V6.71875H22.8867V5.375C22.8867 2.41119 20.2793 0 17.0742 0C13.8692 0 11.2617 2.41119 11.2617 5.375V6.71875H1.81641C0.813205 6.71875 0 7.47075 0 8.39844V84.3203C0 85.248 0.813205 86 1.81641 86H91.1836C92.1868 86 93 85.248 93 84.3203V8.39844C93 7.47075 92.1868 6.71875 91.1836 6.71875ZM73.7461 5.375C73.7461 4.26355 74.7239 3.35938 75.9258 3.35938C77.1277 3.35938 78.1055 4.26355 78.1055 5.375V12.7656C78.1055 13.8771 77.1277 14.7812 75.9258 14.7812C74.7239 14.7812 73.7461 13.8771 73.7461 12.7656V5.375ZM54.1289 5.375C54.1289 4.26355 55.1067 3.35938 56.3086 3.35938C57.5105 3.35938 58.4883 4.26355 58.4883 5.375V12.7656C58.4883 13.8771 57.5105 14.7812 56.3086 14.7812C55.1067 14.7812 54.1289 13.8771 54.1289 12.7656V5.375ZM34.5117 5.375C34.5117 4.26355 35.4895 3.35938 36.6914 3.35938C37.8933 3.35938 38.8711 4.26355 38.8711 5.375V12.7656C38.8711 13.8771 37.8933 14.7812 36.6914 14.7812C35.4895 14.7812 34.5117 13.8771 34.5117 12.7656V5.375ZM14.8945 5.375C14.8945 4.26355 15.8723 3.35938 17.0742 3.35938C18.2761 3.35938 19.2539 4.26355 19.2539 5.375V12.7656C19.2539 13.8771 18.2761 14.7812 17.0742 14.7812C15.8723 14.7812 14.8945 13.8771 14.8945 12.7656V5.375ZM3.63281 82.6406V28.8906H38.3262C39.3294 28.8906 40.1426 28.1386 40.1426 27.2109C40.1426 26.2832 39.3294 25.5312 38.3262 25.5312H3.63281V10.0781H11.2617V12.7656C11.2617 15.7294 13.8692 18.1406 17.0742 18.1406C20.2793 18.1406 22.8867 15.7294 22.8867 12.7656V10.0781H30.8789V12.7656C30.8789 15.7294 33.4864 18.1406 36.6914 18.1406C39.8965 18.1406 42.5039 15.7294 42.5039 12.7656V10.0781H50.4961V12.7656C50.4961 15.7294 53.1035 18.1406 56.3086 18.1406C59.5136 18.1406 62.1211 15.7294 62.1211 12.7656V10.0781H70.1133V12.7656C70.1133 15.7294 72.7207 18.1406 75.9258 18.1406C79.1308 18.1406 81.7383 15.7294 81.7383 12.7656V10.0781H89.3672V25.5312H54.6738C53.6706 25.5312 52.8574 26.2832 52.8574 27.2109C52.8574 28.1386 53.6706 28.8906 54.6738 28.8906H89.3672V82.6406H3.63281Z" fill="black"/>
<path d="M81.0117 34.9375H11.9883C10.9851 34.9375 10.1719 35.6895 10.1719 36.6172V74.9141C10.1719 75.8418 10.9851 76.5938 11.9883 76.5938H81.0117C82.0149 76.5938 82.8281 75.8418 82.8281 74.9141V36.6172C82.8281 35.6895 82.0149 34.9375 81.0117 34.9375ZM13.8047 51.0625H27.4508V60.4688H13.8047V51.0625ZM31.0836 51.0625H44.7067V60.4688H31.0836V51.0625ZM44.7067 47.7031H31.0836V38.2969H44.7067V47.7031ZM48.3395 38.2969H61.9625V47.7031H48.3395V38.2969ZM44.7067 63.8281V73.2344H31.0836V63.8281H44.7067ZM48.3395 63.8281H61.9625V73.2344H48.3395V63.8281ZM48.3395 60.4688V51.0625H61.9625V60.4688H48.3395ZM65.5953 51.0625H79.1953V60.4688H65.5953V51.0625ZM79.1953 47.7031H65.5953V38.2969H79.1953V47.7031ZM27.4508 38.2969V47.7031H13.8047V38.2969H27.4508ZM13.8047 63.8281H27.4508V73.2344H13.8047V63.8281ZM65.5953 73.2344V63.8281H79.1953V73.2344H65.5953Z" fill="black"/>
<path d="M46.5 28.8906C46.9777 28.8906 47.4463 28.7109 47.7842 28.3985C48.1221 28.0861 48.3164 27.6527 48.3164 27.2109C48.3164 26.7692 48.1221 26.3358 47.7842 26.0234C47.4463 25.711 46.9777 25.5312 46.5 25.5312C46.0223 25.5312 45.5537 25.711 45.2158 26.0234C44.8779 26.3358 44.6836 26.7692 44.6836 27.2109C44.6836 27.6527 44.8779 28.0861 45.2158 28.3985C45.5537 28.7109 46.0223 28.8906 46.5 28.8906Z" fill="black"/>
</svg>
